<svg width="22" height="832" viewBox="0 0 22 832" fill="none" xmlns="http://www.w3.org/2000/svg">
<rect x="14.0001" y="11" width="821" height="5.99996" transform="rotate(90 14.0001 11)" fill="#E0E0E0"/>
<rect x="14.0001" y="11" width="546" height="6" transform="rotate(90 14.0001 11)" fill="#F8BA1A"/>
<rect x="19.0001" y="3" width="16" height="16" rx="8" transform="rotate(90 19.0001 3)" fill="white" stroke="#F8BA1A" stroke-width="6"/>
<rect x="19" y="287" width="16" height="16" rx="8" transform="rotate(90 19 287)" fill="white" stroke="#F8BA1A" stroke-width="6"/>
<rect x="19.0002" y="130" width="16" height="16" rx="8" transform="rotate(90 19.0002 130)" fill="white" stroke="#F8BA1A" stroke-width="6"/>
<rect x="19.0001" y="433" width="16" height="16" rx="8" transform="rotate(90 19.0001 433)" fill="white" stroke="#F8BA1A" stroke-width="6"/>
<rect x="19.0001" y="590" width="16" height="16" rx="8" transform="rotate(90 19.0001 590)" fill="#090F3F" stroke="#E0E0E0" stroke-width="6"/>
<rect x="19" y="713" width="16" height="16" rx="8" transform="rotate(90 19 713)" fill="#090F3F" stroke="#E0E0E0" stroke-width="6"/>
</svg>
